<svg width="16" height="16" viewBox="0 0 16 16" fill="none" xmlns="http://www.w3.org/2000/svg">
<path d="M14.1875 9.03125C13.7812 8.90625 13.375 9.125 13.25 9.53125C12.5938 11.875 10.4062 13.5 7.96875 13.5C5.875 13.5 4 12.3125 3.0625 10.5H6.21875C6.625 10.5 6.96875 10.1875 6.96875 9.75C6.96875 9.34375 6.65625 9 6.21875 9H1.21875C0.8125 9 0.46875 9.34375 0.46875 9.75V14.75C0.46875 15.1875 0.8125 15.5 1.21875 15.5C1.65625 15.5 1.96875 15.1875 1.96875 14.75V11.5625C3.21875 13.6562 5.5 15 7.96875 15C11.0625 15 13.8125 12.9375 14.6875 9.96875C14.8125 9.5625 14.5938 9.15625 14.1875 9.03125ZM14.75 0.5C14.3125 0.5 14 0.84375 14 1.25V4.46875C12.75 2.375 10.4688 1 8 1C4.90625 1 2.125 3.09375 1.25 6.0625C1.15625 6.4375 1.375 6.875 1.78125 6.96875C2.1875 7.09375 2.59375 6.875 2.6875 6.46875C3.375 4.15625 5.5625 2.5 8 2.5C10.0625 2.5 11.9375 3.71875 12.875 5.5H9.75C9.3125 5.5 9 5.84375 9 6.25C9 6.6875 9.3125 7 9.75 7H14.75C15.1562 7 15.5 6.6875 15.5 6.25V1.25C15.5 0.84375 15.1562 0.5 14.75 0.5Z" fill="#4D4D4D"/>
</svg>
